<mxfile host="app.diagrams.net" agent="Mozilla/5.0 (Macintosh; Intel Mac OS X 10_15_7) AppleWebKit/537.36 (KHTML, like Gecko) Chrome/133.0.0.0 Safari/537.36" version="26.0.16">
  <diagram name="Page-1" id="X50r67eha17uEZtLHzOA">
    <mxGraphModel dx="3187" dy="1121" grid="1" gridSize="10" guides="1" tooltips="1" connect="1" arrows="1" fold="1" page="1" pageScale="1" pageWidth="827" pageHeight="1169" math="0" shadow="0">
      <root>
        <mxCell id="0" />
        <mxCell id="1" parent="0" />
        <mxCell id="xhA7TpGYNtqSUp4RFqiF-86" value="" style="rounded=0;whiteSpace=wrap;html=1;fillColor=#dae8fc;strokeColor=#6c8ebf;" vertex="1" parent="1">
          <mxGeometry x="-50" y="260" width="870" height="335" as="geometry" />
        </mxCell>
        <mxCell id="xhA7TpGYNtqSUp4RFqiF-85" value="" style="rounded=0;whiteSpace=wrap;html=1;fillColor=#dae8fc;strokeColor=#6c8ebf;" vertex="1" parent="1">
          <mxGeometry x="-50" y="605" width="870" height="335" as="geometry" />
        </mxCell>
        <mxCell id="xhA7TpGYNtqSUp4RFqiF-84" value="" style="rounded=0;whiteSpace=wrap;html=1;fillColor=#d5e8d4;strokeColor=#82b366;" vertex="1" parent="1">
          <mxGeometry x="-1010" y="520" width="720" height="530" as="geometry" />
        </mxCell>
        <mxCell id="xhA7TpGYNtqSUp4RFqiF-40" style="edgeStyle=orthogonalEdgeStyle;rounded=0;orthogonalLoop=1;jettySize=auto;html=1;exitX=1;exitY=0.5;exitDx=0;exitDy=0;entryX=0;entryY=0.5;entryDx=0;entryDy=0;" edge="1" parent="1" source="xhA7TpGYNtqSUp4RFqiF-38" target="xhA7TpGYNtqSUp4RFqiF-31">
          <mxGeometry relative="1" as="geometry" />
        </mxCell>
        <mxCell id="xhA7TpGYNtqSUp4RFqiF-38" value="" style="rounded=0;whiteSpace=wrap;html=1;" vertex="1" parent="1">
          <mxGeometry x="-670" y="552.5" width="200" height="455" as="geometry" />
        </mxCell>
        <mxCell id="xhA7TpGYNtqSUp4RFqiF-41" style="edgeStyle=orthogonalEdgeStyle;rounded=0;orthogonalLoop=1;jettySize=auto;html=1;exitX=1;exitY=0.5;exitDx=0;exitDy=0;entryX=0.5;entryY=0;entryDx=0;entryDy=0;" edge="1" parent="1" source="xhA7TpGYNtqSUp4RFqiF-1" target="xhA7TpGYNtqSUp4RFqiF-29">
          <mxGeometry relative="1" as="geometry" />
        </mxCell>
        <mxCell id="xhA7TpGYNtqSUp4RFqiF-1" value="Summarize_job" style="rounded=1;whiteSpace=wrap;html=1;" vertex="1" parent="1">
          <mxGeometry x="-1000" y="190" width="120" height="180" as="geometry" />
        </mxCell>
        <mxCell id="xhA7TpGYNtqSUp4RFqiF-35" style="edgeStyle=orthogonalEdgeStyle;rounded=0;orthogonalLoop=1;jettySize=auto;html=1;exitX=1;exitY=0.5;exitDx=0;exitDy=0;entryX=0;entryY=0.5;entryDx=0;entryDy=0;" edge="1" parent="1" source="xhA7TpGYNtqSUp4RFqiF-2" target="xhA7TpGYNtqSUp4RFqiF-30">
          <mxGeometry relative="1" as="geometry" />
        </mxCell>
        <mxCell id="xhA7TpGYNtqSUp4RFqiF-2" value="Summarize_profile" style="whiteSpace=wrap;html=1;rounded=1;" vertex="1" parent="1">
          <mxGeometry x="-980" y="720" width="120" height="130" as="geometry" />
        </mxCell>
        <mxCell id="xhA7TpGYNtqSUp4RFqiF-4" value="summarize_exp1" style="whiteSpace=wrap;html=1;rounded=1;" vertex="1" parent="1">
          <mxGeometry x="-630" y="600" width="120" height="60" as="geometry" />
        </mxCell>
        <mxCell id="xhA7TpGYNtqSUp4RFqiF-6" value="summarize_exp2" style="whiteSpace=wrap;html=1;rounded=1;" vertex="1" parent="1">
          <mxGeometry x="-630" y="680" width="120" height="60" as="geometry" />
        </mxCell>
        <mxCell id="xhA7TpGYNtqSUp4RFqiF-7" value="summarize_edu1" style="whiteSpace=wrap;html=1;rounded=1;" vertex="1" parent="1">
          <mxGeometry x="-630" y="825" width="120" height="60" as="geometry" />
        </mxCell>
        <mxCell id="xhA7TpGYNtqSUp4RFqiF-8" value="summarize_edu2" style="whiteSpace=wrap;html=1;rounded=1;" vertex="1" parent="1">
          <mxGeometry x="-630" y="905" width="120" height="60" as="geometry" />
        </mxCell>
        <mxCell id="xhA7TpGYNtqSUp4RFqiF-14" value="Select_experiences" style="rounded=1;whiteSpace=wrap;html=1;" vertex="1" parent="1">
          <mxGeometry x="-20" y="480" width="120" height="60" as="geometry" />
        </mxCell>
        <mxCell id="xhA7TpGYNtqSUp4RFqiF-57" style="edgeStyle=orthogonalEdgeStyle;rounded=0;orthogonalLoop=1;jettySize=auto;html=1;exitX=1;exitY=0.5;exitDx=0;exitDy=0;entryX=0;entryY=0.5;entryDx=0;entryDy=0;" edge="1" parent="1" source="xhA7TpGYNtqSUp4RFqiF-24" target="xhA7TpGYNtqSUp4RFqiF-55">
          <mxGeometry relative="1" as="geometry" />
        </mxCell>
        <mxCell id="xhA7TpGYNtqSUp4RFqiF-24" value="Select_edu" style="rounded=1;whiteSpace=wrap;html=1;" vertex="1" parent="1">
          <mxGeometry x="-20" y="700" width="120" height="60" as="geometry" />
        </mxCell>
        <mxCell id="xhA7TpGYNtqSUp4RFqiF-33" style="edgeStyle=orthogonalEdgeStyle;rounded=0;orthogonalLoop=1;jettySize=auto;html=1;exitX=1;exitY=0.5;exitDx=0;exitDy=0;entryX=0;entryY=0.5;entryDx=0;entryDy=0;" edge="1" parent="1" source="xhA7TpGYNtqSUp4RFqiF-28" target="xhA7TpGYNtqSUp4RFqiF-1">
          <mxGeometry relative="1" as="geometry" />
        </mxCell>
        <mxCell id="xhA7TpGYNtqSUp4RFqiF-34" style="edgeStyle=orthogonalEdgeStyle;rounded=0;orthogonalLoop=1;jettySize=auto;html=1;exitX=1;exitY=0.5;exitDx=0;exitDy=0;entryX=0;entryY=0.5;entryDx=0;entryDy=0;" edge="1" parent="1" source="xhA7TpGYNtqSUp4RFqiF-28" target="xhA7TpGYNtqSUp4RFqiF-2">
          <mxGeometry relative="1" as="geometry" />
        </mxCell>
        <mxCell id="xhA7TpGYNtqSUp4RFqiF-28" value="START" style="rounded=1;whiteSpace=wrap;html=1;" vertex="1" parent="1">
          <mxGeometry x="-1260" y="525" width="120" height="60" as="geometry" />
        </mxCell>
        <mxCell id="xhA7TpGYNtqSUp4RFqiF-43" style="edgeStyle=orthogonalEdgeStyle;rounded=0;orthogonalLoop=1;jettySize=auto;html=1;exitX=1;exitY=0.5;exitDx=0;exitDy=0;entryX=0;entryY=0.5;entryDx=0;entryDy=0;" edge="1" parent="1" source="xhA7TpGYNtqSUp4RFqiF-29" target="xhA7TpGYNtqSUp4RFqiF-14">
          <mxGeometry relative="1" as="geometry" />
        </mxCell>
        <mxCell id="xhA7TpGYNtqSUp4RFqiF-44" style="edgeStyle=orthogonalEdgeStyle;rounded=0;orthogonalLoop=1;jettySize=auto;html=1;exitX=1;exitY=0.5;exitDx=0;exitDy=0;entryX=0;entryY=0.5;entryDx=0;entryDy=0;" edge="1" parent="1" source="xhA7TpGYNtqSUp4RFqiF-29" target="xhA7TpGYNtqSUp4RFqiF-24">
          <mxGeometry relative="1" as="geometry" />
        </mxCell>
        <mxCell id="xhA7TpGYNtqSUp4RFqiF-46" style="edgeStyle=orthogonalEdgeStyle;rounded=0;orthogonalLoop=1;jettySize=auto;html=1;exitX=1;exitY=0.5;exitDx=0;exitDy=0;entryX=0;entryY=0.5;entryDx=0;entryDy=0;" edge="1" parent="1" source="xhA7TpGYNtqSUp4RFqiF-29" target="xhA7TpGYNtqSUp4RFqiF-45">
          <mxGeometry relative="1" as="geometry" />
        </mxCell>
        <mxCell id="xhA7TpGYNtqSUp4RFqiF-48" style="edgeStyle=orthogonalEdgeStyle;rounded=0;orthogonalLoop=1;jettySize=auto;html=1;exitX=1;exitY=0.5;exitDx=0;exitDy=0;entryX=0;entryY=0.5;entryDx=0;entryDy=0;" edge="1" parent="1" source="xhA7TpGYNtqSUp4RFqiF-29" target="xhA7TpGYNtqSUp4RFqiF-47">
          <mxGeometry relative="1" as="geometry" />
        </mxCell>
        <mxCell id="xhA7TpGYNtqSUp4RFqiF-74" style="edgeStyle=orthogonalEdgeStyle;rounded=0;orthogonalLoop=1;jettySize=auto;html=1;exitX=1;exitY=0.5;exitDx=0;exitDy=0;entryX=0;entryY=0.5;entryDx=0;entryDy=0;" edge="1" parent="1" source="xhA7TpGYNtqSUp4RFqiF-29" target="xhA7TpGYNtqSUp4RFqiF-72">
          <mxGeometry relative="1" as="geometry" />
        </mxCell>
        <mxCell id="xhA7TpGYNtqSUp4RFqiF-29" value="aggregator" style="ellipse;whiteSpace=wrap;html=1;aspect=fixed;" vertex="1" parent="1">
          <mxGeometry x="-240" y="580" width="80" height="80" as="geometry" />
        </mxCell>
        <mxCell id="xhA7TpGYNtqSUp4RFqiF-39" style="edgeStyle=orthogonalEdgeStyle;rounded=0;orthogonalLoop=1;jettySize=auto;html=1;exitX=1;exitY=0.5;exitDx=0;exitDy=0;entryX=0;entryY=0.5;entryDx=0;entryDy=0;" edge="1" parent="1" source="xhA7TpGYNtqSUp4RFqiF-30" target="xhA7TpGYNtqSUp4RFqiF-38">
          <mxGeometry relative="1" as="geometry" />
        </mxCell>
        <mxCell id="xhA7TpGYNtqSUp4RFqiF-30" value="orchestrator" style="ellipse;whiteSpace=wrap;html=1;aspect=fixed;" vertex="1" parent="1">
          <mxGeometry x="-810" y="745" width="80" height="80" as="geometry" />
        </mxCell>
        <mxCell id="xhA7TpGYNtqSUp4RFqiF-42" style="edgeStyle=orthogonalEdgeStyle;rounded=0;orthogonalLoop=1;jettySize=auto;html=1;exitX=1;exitY=0.5;exitDx=0;exitDy=0;entryX=0.5;entryY=1;entryDx=0;entryDy=0;" edge="1" parent="1" source="xhA7TpGYNtqSUp4RFqiF-31" target="xhA7TpGYNtqSUp4RFqiF-29">
          <mxGeometry relative="1" as="geometry" />
        </mxCell>
        <mxCell id="xhA7TpGYNtqSUp4RFqiF-31" value="synthetiseur" style="ellipse;whiteSpace=wrap;html=1;aspect=fixed;" vertex="1" parent="1">
          <mxGeometry x="-430" y="740" width="80" height="80" as="geometry" />
        </mxCell>
        <mxCell id="xhA7TpGYNtqSUp4RFqiF-77" style="edgeStyle=orthogonalEdgeStyle;rounded=0;orthogonalLoop=1;jettySize=auto;html=1;exitX=1;exitY=0.5;exitDx=0;exitDy=0;entryX=0;entryY=0.5;entryDx=0;entryDy=0;" edge="1" parent="1" source="xhA7TpGYNtqSUp4RFqiF-45" target="xhA7TpGYNtqSUp4RFqiF-76">
          <mxGeometry relative="1" as="geometry">
            <Array as="points">
              <mxPoint x="860" y="190" />
              <mxPoint x="860" y="593" />
            </Array>
          </mxGeometry>
        </mxCell>
        <mxCell id="xhA7TpGYNtqSUp4RFqiF-45" value="create_head" style="rounded=1;whiteSpace=wrap;html=1;" vertex="1" parent="1">
          <mxGeometry x="-20" y="160" width="120" height="60" as="geometry" />
        </mxCell>
        <mxCell id="xhA7TpGYNtqSUp4RFqiF-80" style="edgeStyle=orthogonalEdgeStyle;rounded=0;orthogonalLoop=1;jettySize=auto;html=1;exitX=1;exitY=0.5;exitDx=0;exitDy=0;entryX=0;entryY=0.5;entryDx=0;entryDy=0;" edge="1" parent="1" source="xhA7TpGYNtqSUp4RFqiF-47" target="xhA7TpGYNtqSUp4RFqiF-76">
          <mxGeometry relative="1" as="geometry">
            <Array as="points">
              <mxPoint x="870" y="1020" />
              <mxPoint x="870" y="593" />
            </Array>
          </mxGeometry>
        </mxCell>
        <mxCell id="xhA7TpGYNtqSUp4RFqiF-47" value="create_skills" style="rounded=1;whiteSpace=wrap;html=1;" vertex="1" parent="1">
          <mxGeometry x="-20" y="990" width="120" height="60" as="geometry" />
        </mxCell>
        <mxCell id="xhA7TpGYNtqSUp4RFqiF-50" value="" style="edgeStyle=orthogonalEdgeStyle;rounded=0;orthogonalLoop=1;jettySize=auto;html=1;" edge="1" parent="1" source="xhA7TpGYNtqSUp4RFqiF-14" target="xhA7TpGYNtqSUp4RFqiF-49">
          <mxGeometry relative="1" as="geometry">
            <mxPoint x="100" y="510" as="sourcePoint" />
            <mxPoint x="300" y="510" as="targetPoint" />
          </mxGeometry>
        </mxCell>
        <mxCell id="xhA7TpGYNtqSUp4RFqiF-58" style="edgeStyle=orthogonalEdgeStyle;rounded=0;orthogonalLoop=1;jettySize=auto;html=1;exitX=1;exitY=0.5;exitDx=0;exitDy=0;" edge="1" parent="1" source="xhA7TpGYNtqSUp4RFqiF-49" target="xhA7TpGYNtqSUp4RFqiF-52">
          <mxGeometry relative="1" as="geometry" />
        </mxCell>
        <mxCell id="xhA7TpGYNtqSUp4RFqiF-49" value="orchestrator" style="ellipse;whiteSpace=wrap;html=1;aspect=fixed;" vertex="1" parent="1">
          <mxGeometry x="170" y="470" width="80" height="80" as="geometry" />
        </mxCell>
        <mxCell id="xhA7TpGYNtqSUp4RFqiF-59" style="edgeStyle=orthogonalEdgeStyle;rounded=0;orthogonalLoop=1;jettySize=auto;html=1;exitX=1;exitY=0.5;exitDx=0;exitDy=0;" edge="1" parent="1" source="xhA7TpGYNtqSUp4RFqiF-55" target="xhA7TpGYNtqSUp4RFqiF-53">
          <mxGeometry relative="1" as="geometry" />
        </mxCell>
        <mxCell id="xhA7TpGYNtqSUp4RFqiF-55" value="orchestrator" style="ellipse;whiteSpace=wrap;html=1;aspect=fixed;" vertex="1" parent="1">
          <mxGeometry x="160" y="690" width="80" height="80" as="geometry" />
        </mxCell>
        <mxCell id="xhA7TpGYNtqSUp4RFqiF-60" value="" style="group" vertex="1" connectable="0" parent="1">
          <mxGeometry x="320" y="320" width="230" height="280" as="geometry" />
        </mxCell>
        <mxCell id="xhA7TpGYNtqSUp4RFqiF-52" value="" style="rounded=0;whiteSpace=wrap;html=1;" vertex="1" parent="xhA7TpGYNtqSUp4RFqiF-60">
          <mxGeometry width="230" height="280" as="geometry" />
        </mxCell>
        <mxCell id="xhA7TpGYNtqSUp4RFqiF-21" value="exp 1 :assign weight&lt;div&gt;and order&lt;/div&gt;" style="whiteSpace=wrap;html=1;rounded=1;" vertex="1" parent="xhA7TpGYNtqSUp4RFqiF-60">
          <mxGeometry x="60" y="50" width="120" height="60" as="geometry" />
        </mxCell>
        <mxCell id="xhA7TpGYNtqSUp4RFqiF-51" value="exp 2 :assign weight&lt;div&gt;and order&lt;/div&gt;" style="whiteSpace=wrap;html=1;rounded=1;" vertex="1" parent="xhA7TpGYNtqSUp4RFqiF-60">
          <mxGeometry x="60" y="130" width="120" height="60" as="geometry" />
        </mxCell>
        <mxCell id="xhA7TpGYNtqSUp4RFqiF-61" value="" style="group" vertex="1" connectable="0" parent="1">
          <mxGeometry x="325" y="645" width="230" height="280" as="geometry" />
        </mxCell>
        <mxCell id="xhA7TpGYNtqSUp4RFqiF-53" value="" style="rounded=0;whiteSpace=wrap;html=1;" vertex="1" parent="xhA7TpGYNtqSUp4RFqiF-61">
          <mxGeometry width="230" height="280" as="geometry" />
        </mxCell>
        <mxCell id="xhA7TpGYNtqSUp4RFqiF-54" value="edu 1 :assign weight&lt;div&gt;and order&lt;/div&gt;" style="whiteSpace=wrap;html=1;rounded=1;" vertex="1" parent="xhA7TpGYNtqSUp4RFqiF-61">
          <mxGeometry x="60" y="50" width="120" height="60" as="geometry" />
        </mxCell>
        <mxCell id="xhA7TpGYNtqSUp4RFqiF-56" value="edu 2 :assign weight&lt;div&gt;and order&lt;/div&gt;" style="whiteSpace=wrap;html=1;rounded=1;" vertex="1" parent="xhA7TpGYNtqSUp4RFqiF-61">
          <mxGeometry x="60" y="130" width="120" height="60" as="geometry" />
        </mxCell>
        <mxCell id="xhA7TpGYNtqSUp4RFqiF-67" style="edgeStyle=orthogonalEdgeStyle;rounded=0;orthogonalLoop=1;jettySize=auto;html=1;exitX=1;exitY=0.5;exitDx=0;exitDy=0;" edge="1" parent="1" source="xhA7TpGYNtqSUp4RFqiF-62" target="xhA7TpGYNtqSUp4RFqiF-66">
          <mxGeometry relative="1" as="geometry" />
        </mxCell>
        <mxCell id="xhA7TpGYNtqSUp4RFqiF-62" value="synthetiseur" style="ellipse;whiteSpace=wrap;html=1;aspect=fixed;" vertex="1" parent="1">
          <mxGeometry x="590" y="420" width="80" height="80" as="geometry" />
        </mxCell>
        <mxCell id="xhA7TpGYNtqSUp4RFqiF-70" style="edgeStyle=orthogonalEdgeStyle;rounded=0;orthogonalLoop=1;jettySize=auto;html=1;exitX=1;exitY=0.5;exitDx=0;exitDy=0;entryX=0;entryY=0.5;entryDx=0;entryDy=0;" edge="1" parent="1" source="xhA7TpGYNtqSUp4RFqiF-63" target="xhA7TpGYNtqSUp4RFqiF-69">
          <mxGeometry relative="1" as="geometry" />
        </mxCell>
        <mxCell id="xhA7TpGYNtqSUp4RFqiF-63" value="synthetiseur" style="ellipse;whiteSpace=wrap;html=1;aspect=fixed;" vertex="1" parent="1">
          <mxGeometry x="610" y="745" width="80" height="80" as="geometry" />
        </mxCell>
        <mxCell id="xhA7TpGYNtqSUp4RFqiF-64" style="edgeStyle=orthogonalEdgeStyle;rounded=0;orthogonalLoop=1;jettySize=auto;html=1;exitX=1;exitY=0.5;exitDx=0;exitDy=0;" edge="1" parent="1" source="xhA7TpGYNtqSUp4RFqiF-52" target="xhA7TpGYNtqSUp4RFqiF-62">
          <mxGeometry relative="1" as="geometry" />
        </mxCell>
        <mxCell id="xhA7TpGYNtqSUp4RFqiF-65" style="edgeStyle=orthogonalEdgeStyle;rounded=0;orthogonalLoop=1;jettySize=auto;html=1;exitX=1;exitY=0.5;exitDx=0;exitDy=0;entryX=0;entryY=0.5;entryDx=0;entryDy=0;" edge="1" parent="1" source="xhA7TpGYNtqSUp4RFqiF-53" target="xhA7TpGYNtqSUp4RFqiF-63">
          <mxGeometry relative="1" as="geometry" />
        </mxCell>
        <mxCell id="xhA7TpGYNtqSUp4RFqiF-68" style="edgeStyle=orthogonalEdgeStyle;rounded=0;orthogonalLoop=1;jettySize=auto;html=1;exitX=0.5;exitY=0;exitDx=0;exitDy=0;entryX=0.5;entryY=0;entryDx=0;entryDy=0;" edge="1" parent="1" source="xhA7TpGYNtqSUp4RFqiF-66" target="xhA7TpGYNtqSUp4RFqiF-49">
          <mxGeometry relative="1" as="geometry">
            <Array as="points">
              <mxPoint x="750" y="280" />
              <mxPoint x="210" y="280" />
            </Array>
          </mxGeometry>
        </mxCell>
        <mxCell id="xhA7TpGYNtqSUp4RFqiF-78" style="edgeStyle=orthogonalEdgeStyle;rounded=0;orthogonalLoop=1;jettySize=auto;html=1;exitX=1;exitY=0.5;exitDx=0;exitDy=0;entryX=0;entryY=0.5;entryDx=0;entryDy=0;" edge="1" parent="1" source="xhA7TpGYNtqSUp4RFqiF-66" target="xhA7TpGYNtqSUp4RFqiF-76">
          <mxGeometry relative="1" as="geometry" />
        </mxCell>
        <mxCell id="xhA7TpGYNtqSUp4RFqiF-66" value="validator" style="ellipse;whiteSpace=wrap;html=1;aspect=fixed;" vertex="1" parent="1">
          <mxGeometry x="710" y="420" width="80" height="80" as="geometry" />
        </mxCell>
        <mxCell id="xhA7TpGYNtqSUp4RFqiF-71" style="edgeStyle=orthogonalEdgeStyle;rounded=0;orthogonalLoop=1;jettySize=auto;html=1;exitX=0.5;exitY=0;exitDx=0;exitDy=0;entryX=0.5;entryY=0;entryDx=0;entryDy=0;" edge="1" parent="1" source="xhA7TpGYNtqSUp4RFqiF-69" target="xhA7TpGYNtqSUp4RFqiF-55">
          <mxGeometry relative="1" as="geometry">
            <Array as="points">
              <mxPoint x="760" y="630" />
              <mxPoint x="200" y="630" />
            </Array>
          </mxGeometry>
        </mxCell>
        <mxCell id="xhA7TpGYNtqSUp4RFqiF-79" style="edgeStyle=orthogonalEdgeStyle;rounded=0;orthogonalLoop=1;jettySize=auto;html=1;exitX=1;exitY=0.5;exitDx=0;exitDy=0;entryX=0;entryY=0.5;entryDx=0;entryDy=0;" edge="1" parent="1" source="xhA7TpGYNtqSUp4RFqiF-69" target="xhA7TpGYNtqSUp4RFqiF-76">
          <mxGeometry relative="1" as="geometry" />
        </mxCell>
        <mxCell id="xhA7TpGYNtqSUp4RFqiF-69" value="validator" style="ellipse;whiteSpace=wrap;html=1;aspect=fixed;" vertex="1" parent="1">
          <mxGeometry x="720" y="745" width="80" height="80" as="geometry" />
        </mxCell>
        <mxCell id="xhA7TpGYNtqSUp4RFqiF-81" style="edgeStyle=orthogonalEdgeStyle;rounded=0;orthogonalLoop=1;jettySize=auto;html=1;exitX=1;exitY=0.5;exitDx=0;exitDy=0;entryX=0;entryY=0.5;entryDx=0;entryDy=0;" edge="1" parent="1" source="xhA7TpGYNtqSUp4RFqiF-72" target="xhA7TpGYNtqSUp4RFqiF-76">
          <mxGeometry relative="1" as="geometry">
            <Array as="points">
              <mxPoint x="860" y="1190" />
              <mxPoint x="860" y="593" />
            </Array>
          </mxGeometry>
        </mxCell>
        <mxCell id="xhA7TpGYNtqSUp4RFqiF-72" value="create_languages" style="rounded=1;whiteSpace=wrap;html=1;" vertex="1" parent="1">
          <mxGeometry x="-20" y="1160" width="120" height="60" as="geometry" />
        </mxCell>
        <mxCell id="xhA7TpGYNtqSUp4RFqiF-83" style="edgeStyle=orthogonalEdgeStyle;rounded=0;orthogonalLoop=1;jettySize=auto;html=1;exitX=1;exitY=0.5;exitDx=0;exitDy=0;entryX=0;entryY=0.5;entryDx=0;entryDy=0;" edge="1" parent="1" source="xhA7TpGYNtqSUp4RFqiF-76" target="xhA7TpGYNtqSUp4RFqiF-82">
          <mxGeometry relative="1" as="geometry" />
        </mxCell>
        <mxCell id="xhA7TpGYNtqSUp4RFqiF-76" value="aggregator" style="ellipse;whiteSpace=wrap;html=1;aspect=fixed;" vertex="1" parent="1">
          <mxGeometry x="930" y="552.5" width="80" height="80" as="geometry" />
        </mxCell>
        <mxCell id="xhA7TpGYNtqSUp4RFqiF-88" value="" style="edgeStyle=orthogonalEdgeStyle;rounded=0;orthogonalLoop=1;jettySize=auto;html=1;" edge="1" parent="1" source="xhA7TpGYNtqSUp4RFqiF-82" target="xhA7TpGYNtqSUp4RFqiF-87">
          <mxGeometry relative="1" as="geometry" />
        </mxCell>
        <mxCell id="xhA7TpGYNtqSUp4RFqiF-82" value="Traduction et harmonisation" style="rounded=1;whiteSpace=wrap;html=1;" vertex="1" parent="1">
          <mxGeometry x="1110" y="562.5" width="120" height="60" as="geometry" />
        </mxCell>
        <mxCell id="xhA7TpGYNtqSUp4RFqiF-87" value="END" style="whiteSpace=wrap;html=1;rounded=1;" vertex="1" parent="1">
          <mxGeometry x="1310" y="562.5" width="120" height="60" as="geometry" />
        </mxCell>
      </root>
    </mxGraphModel>
  </diagram>
</mxfile>
